<svg width="94" height="94" viewBox="0 0 94 94" fill="none" xmlns="http://www.w3.org/2000/svg">
<rect width="94" height="94" rx="2" fill="#0B2434"/>
<path d="M39.2641 37.8011C39.0359 35.8748 38.1108 34.3794 36.4886 33.3149C34.8665 32.2503 32.8768 31.7181 30.5196 31.7181C28.7961 31.7181 27.288 31.9969 25.9953 32.5545C24.7153 33.1121 23.7142 33.8788 22.9918 34.8546C22.2821 35.8305 21.9272 36.9394 21.9272 38.1813C21.9272 39.2205 22.1744 40.114 22.6686 40.8617C23.1755 41.5967 23.8219 42.2114 24.6076 42.7056C25.3933 43.1872 26.2171 43.5864 27.0789 43.9032C27.9406 44.2074 28.7327 44.4545 29.4551 44.6446L33.4091 45.7092C34.4229 45.9753 35.5508 46.3428 36.7928 46.8117C38.0474 47.2806 39.2451 47.9206 40.3856 48.7317C41.5389 49.5301 42.4894 50.5566 43.2371 51.8113C43.9848 53.0659 44.3587 54.6057 44.3587 56.4306C44.3587 58.5344 43.8074 60.4353 42.7048 62.1335C41.6149 63.8317 40.0181 65.1814 37.9144 66.1826C35.8233 67.1838 33.2824 67.6843 30.2915 67.6843C27.5034 67.6843 25.0892 67.2345 23.0488 66.3347C21.0211 65.4349 19.4243 64.1802 18.2584 62.5707C17.1051 60.9613 16.4525 59.092 16.3004 56.9629H21.1669C21.2936 58.433 21.7878 59.6496 22.6496 60.6128C23.5241 61.5632 24.6266 62.2729 25.9573 62.7418C27.3006 63.1981 28.7454 63.4262 30.2915 63.4262C32.0911 63.4262 33.7069 63.1347 35.139 62.5517C36.571 61.9561 37.7053 61.1323 38.5417 60.0805C39.3781 59.0159 39.7963 57.774 39.7963 56.3546C39.7963 55.0619 39.4351 54.0101 38.7128 53.199C37.9904 52.3879 37.0399 51.7289 35.8613 51.222C34.6827 50.715 33.4091 50.2715 32.0404 49.8913L27.2499 48.5226C24.2084 47.6482 21.8005 46.3999 20.0263 44.7777C18.252 43.1555 17.3649 41.0328 17.3649 38.4095C17.3649 36.2297 17.9542 34.3287 19.1328 32.7066C20.3241 31.0717 21.9209 29.8044 23.9233 28.9046C25.9383 27.9922 28.1878 27.5359 30.6717 27.5359C33.181 27.5359 35.4114 27.9858 37.3631 28.8856C39.3148 29.7727 40.8609 30.9893 42.0015 32.5355C43.1547 34.0816 43.763 35.8368 43.8264 37.8011H39.2641ZM49.9808 32.2503V28.0682H79.1796V32.2503H66.9374V67H62.223V32.2503H49.9808Z" fill="#31B877"/>
</svg>
